<svg width="370" height="101" viewBox="0 0 370 101" fill="none" xmlns="http://www.w3.org/2000/svg">
<path d="M 30.74,1.00 C 31.38,1.03 32.41,1.54 32.67,1.68 C 32.84,1.77 33.27,2.24 33.35,2.36 C 33.42,2.46 33.55,2.92 33.57,3.04 C 33.59,3.15 33.58,3.60 33.57,3.72 C 33.56,3.83 33.50,4.28 33.46,4.39 C 33.42,4.51 33.18,4.96 33.12,5.07 C 33.06,5.19 32.85,5.64 32.78,5.75 C 32.70,5.87 32.31,6.32 32.21,6.43 C 32.12,6.54 31.74,6.99 31.65,7.11 C 31.57,7.22 31.28,7.68 31.20,7.79 C 31.11,7.90 30.73,8.35 30.63,8.47 C 30.54,8.58 30.16,9.03 30.07,9.15 C 29.97,9.26 29.59,9.71 29.50,9.83 C 29.41,9.94 29.02,10.39 28.93,10.50 C 28.85,10.61 28.56,11.07 28.48,11.18 C 28.39,11.30 28.01,11.75 27.92,11.86 C 27.82,11.97 27.44,12.43 27.35,12.54 C 27.26,12.65 26.88,13.11 26.78,13.22 C 26.69,13.33 26.30,13.78 26.22,13.90 C 26.14,14.01 25.85,14.47 25.77,14.58 C 25.68,14.69 25.29,15.14 25.20,15.26 C 25.11,15.37 24.73,15.82 24.63,15.93 C 24.54,16.05 24.16,16.50 24.07,16.61 C 23.97,16.73 23.59,17.18 23.50,17.29 C 23.42,17.40 23.13,17.86 23.05,17.97 C 22.96,18.09 22.58,18.54 22.48,18.65 C 22.39,18.76 22.01,19.22 21.92,19.33 C 21.82,19.44 21.45,19.89 21.35,20.01 C 21.26,20.12 20.87,20.57 20.79,20.69 C 20.70,20.80 20.42,21.25 20.33,21.37 C 20.25,21.48 19.86,21.93 19.77,22.04 C 19.67,22.16 19.30,22.61 19.20,22.72 C 19.11,22.84 18.73,23.29 18.64,23.40 C 18.54,23.52 18.17,23.97 18.07,24.08 C 17.98,24.19 17.62,24.65 17.51,24.76 C 17.38,24.88 16.74,25.35 16.60,25.44 C 16.51,25.50 16.25,25.65 16.15,25.67 C 16.02,25.69 15.37,25.69 15.24,25.67 C 15.16,25.65 14.96,25.50 14.90,25.44 C 14.83,25.35 14.51,24.88 14.45,24.76 C 14.40,24.65 14.25,24.20 14.23,24.08 C 14.20,23.97 14.12,23.52 14.11,23.40 C 14.10,23.29 14.11,22.84 14.11,22.72 C 14.11,22.61 14.11,22.16 14.11,22.04 C 14.11,21.93 14.11,21.48 14.11,21.37 C 14.11,21.25 14.11,20.80 14.11,20.69 C 14.11,20.57 14.11,20.12 14.11,20.01 C 14.11,19.89 14.11,19.44 14.11,19.33 C 14.11,19.22 14.11,18.76 14.11,18.65 C 14.11,18.54 14.11,18.08 14.11,17.97 C 14.11,17.86 14.11,17.41 14.11,17.29 C 14.11,17.18 14.11,16.73 14.11,16.61 C 14.11,16.50 14.11,16.05 14.11,15.93 C 14.11,15.82 14.11,15.37 14.11,15.26 C 14.11,15.14 14.11,14.69 14.11,14.58 C 14.11,14.46 14.11,14.01 14.11,13.90 C 14.11,13.79 14.11,13.33 14.11,13.22 C 14.11,13.11 14.11,12.65 14.11,12.54 C 14.11,12.43 14.11,11.97 14.11,11.86 C 14.11,11.75 14.11,11.30 14.11,11.18 C 14.11,11.07 14.11,10.62 14.11,10.50 C 14.11,10.39 14.11,9.94 14.11,9.83 C 14.11,9.71 14.11,9.26 14.11,9.15 C 14.11,9.03 14.11,8.58 14.11,8.47 C 14.11,8.35 14.11,7.90 14.11,7.79 C 14.11,7.68 14.10,7.22 14.11,7.11 C 14.12,7.00 14.20,6.54 14.23,6.43 C 14.25,6.32 14.41,5.87 14.45,5.75 C 14.49,5.64 14.63,5.18 14.68,5.07 C 14.73,4.96 14.95,4.51 15.02,4.39 C 15.08,4.28 15.39,3.83 15.47,3.72 C 15.56,3.60 15.93,3.15 16.04,3.04 C 16.14,2.92 16.58,2.46 16.71,2.36 C 16.88,2.24 17.60,1.78 17.85,1.68 C 18.17,1.55 19.42,1.04 20.11,1.00 C 21.57,0.92 29.29,0.92 30.74,1.00 Z" fill="#ccc922"/>
<path d="M 72.61,1.00 C 73.31,1.05 74.58,1.73 74.87,1.91 C 75.07,2.03 75.47,2.65 75.55,2.81 C 75.62,2.95 75.76,3.56 75.77,3.72 C 75.79,3.87 75.79,4.47 75.77,4.62 C 75.76,4.77 75.60,5.38 75.55,5.53 C 75.50,5.68 75.28,6.28 75.21,6.43 C 75.13,6.59 74.74,7.19 74.64,7.34 C 74.55,7.49 74.17,8.09 74.08,8.24 C 73.98,8.39 73.60,8.99 73.51,9.15 C 73.43,9.30 73.14,9.90 73.06,10.05 C 72.97,10.20 72.59,10.81 72.49,10.96 C 72.40,11.11 72.02,11.71 71.93,11.86 C 71.83,12.01 71.46,12.62 71.36,12.77 C 71.27,12.92 70.88,13.52 70.80,13.67 C 70.71,13.82 70.43,14.43 70.34,14.58 C 70.26,14.73 69.87,15.33 69.78,15.48 C 69.68,15.63 69.31,16.24 69.21,16.39 C 69.12,16.54 68.74,17.14 68.65,17.29 C 68.55,17.44 68.17,18.04 68.08,18.20 C 68.00,18.35 67.71,18.95 67.63,19.10 C 67.54,19.26 67.16,19.86 67.06,20.01 C 66.97,20.16 66.59,20.76 66.50,20.91 C 66.40,21.06 66.03,21.67 65.93,21.82 C 65.84,21.97 65.45,22.57 65.37,22.72 C 65.28,22.87 65.00,23.48 64.91,23.63 C 64.83,23.78 64.44,24.38 64.35,24.53 C 64.25,24.68 63.88,25.29 63.78,25.44 C 63.69,25.59 63.31,26.19 63.22,26.34 C 63.12,26.49 62.74,27.10 62.65,27.25 C 62.57,27.40 62.28,28.01 62.20,28.15 C 62.11,28.31 61.73,28.91 61.63,29.06 C 61.54,29.21 61.16,29.81 61.07,29.96 C 60.97,30.12 60.59,30.72 60.50,30.87 C 60.41,31.02 60.02,31.62 59.93,31.77 C 59.85,31.92 59.57,32.53 59.48,32.68 C 59.40,32.83 59.01,33.43 58.92,33.59 C 58.82,33.74 58.45,34.34 58.35,34.49 C 58.26,34.64 57.89,35.25 57.79,35.40 C 57.67,35.55 57.13,36.15 56.99,36.30 C 56.85,36.45 56.25,37.06 56.09,37.21 C 55.91,37.36 55.16,37.97 54.96,38.11 C 54.73,38.27 53.76,38.88 53.49,39.02 C 53.16,39.18 51.71,39.80 51.34,39.92 C 50.94,40.05 49.57,40.46 48.85,40.49 C 47.36,40.55 39.57,40.55 38.10,40.49 C 37.48,40.46 36.54,40.06 36.29,39.92 C 36.08,39.81 35.50,39.18 35.38,39.02 C 35.28,38.87 34.97,38.27 34.93,38.11 C 34.89,37.96 34.92,37.36 34.93,37.21 C 34.94,37.05 35.01,36.45 35.04,36.30 C 35.08,36.15 35.32,35.54 35.38,35.40 C 35.45,35.24 35.75,34.64 35.84,34.49 C 35.92,34.34 36.31,33.74 36.40,33.59 C 36.50,33.43 36.88,32.83 36.97,32.68 C 37.05,32.53 37.34,31.92 37.42,31.77 C 37.51,31.62 37.89,31.02 37.99,30.87 C 38.08,30.72 38.46,30.12 38.55,29.96 C 38.65,29.81 39.02,29.21 39.12,29.06 C 39.21,28.91 39.60,28.31 39.68,28.15 C 39.77,28.01 40.05,27.40 40.13,27.25 C 40.22,27.10 40.61,26.49 40.70,26.34 C 40.79,26.19 41.17,25.59 41.27,25.44 C 41.36,25.29 41.74,24.68 41.83,24.53 C 41.93,24.38 42.31,23.78 42.40,23.63 C 42.48,23.48 42.77,22.87 42.85,22.72 C 42.94,22.57 43.32,21.97 43.42,21.82 C 43.51,21.67 43.89,21.06 43.98,20.91 C 44.08,20.76 44.45,20.16 44.55,20.01 C 44.64,19.86 45.03,19.26 45.11,19.10 C 45.20,18.95 45.48,18.35 45.57,18.20 C 45.65,18.04 46.04,17.44 46.13,17.29 C 46.23,17.14 46.60,16.54 46.70,16.39 C 46.79,16.24 47.17,15.63 47.26,15.48 C 47.36,15.33 47.74,14.73 47.83,14.58 C 47.91,14.43 48.20,13.82 48.28,13.67 C 48.37,13.52 48.75,12.92 48.85,12.77 C 48.94,12.62 49.32,12.01 49.41,11.86 C 49.51,11.71 49.88,11.11 49.98,10.96 C 50.07,10.81 50.46,10.20 50.54,10.05 C 50.63,9.90 50.91,9.30 51.00,9.15 C 51.08,8.99 51.47,8.39 51.56,8.24 C 51.66,8.09 52.03,7.49 52.13,7.34 C 52.22,7.19 52.59,6.58 52.69,6.43 C 52.80,6.28 53.24,5.67 53.37,5.53 C 53.51,5.37 54.12,4.77 54.28,4.62 C 54.44,4.47 55.11,3.86 55.30,3.72 C 55.50,3.56 56.40,2.95 56.65,2.81 C 56.93,2.65 58.09,2.04 58.46,1.91 C 58.96,1.73 61.00,1.05 61.86,1.00 C 63.36,0.90 71.14,0.90 72.61,1.00 Z" fill="#ccc922"/>
<path d="M 48.85,60.97 C 49.70,61.02 51.75,61.70 52.24,61.87 C 52.62,62.00 53.77,62.62 54.05,62.78 C 54.30,62.92 55.20,63.52 55.41,63.68 C 55.60,63.83 56.26,64.43 56.43,64.59 C 56.59,64.73 57.20,65.34 57.33,65.49 C 57.46,65.64 57.91,66.24 58.01,66.40 C 58.11,66.55 58.48,67.15 58.58,67.30 C 58.67,67.45 59.05,68.06 59.14,68.21 C 59.24,68.36 59.62,68.96 59.71,69.11 C 59.79,69.26 60.08,69.87 60.16,70.02 C 60.25,70.17 60.63,70.77 60.73,70.92 C 60.82,71.07 61.20,71.68 61.29,71.83 C 61.39,71.98 61.76,72.58 61.86,72.73 C 61.95,72.88 62.34,73.48 62.42,73.64 C 62.51,73.79 62.79,74.39 62.88,74.54 C 62.96,74.70 63.35,75.30 63.44,75.45 C 63.54,75.60 63.91,76.20 64.01,76.35 C 64.10,76.50 64.48,77.11 64.57,77.26 C 64.67,77.41 65.05,78.01 65.14,78.16 C 65.22,78.31 65.51,78.92 65.59,79.07 C 65.68,79.22 66.06,79.82 66.16,79.97 C 66.25,80.12 66.63,80.73 66.72,80.88 C 66.82,81.03 67.19,81.63 67.29,81.78 C 67.38,81.93 67.77,82.54 67.85,82.69 C 67.94,82.84 68.22,83.45 68.31,83.59 C 68.39,83.75 68.78,84.35 68.87,84.50 C 68.97,84.65 69.34,85.25 69.44,85.40 C 69.53,85.56 69.91,86.16 70.00,86.31 C 70.10,86.46 70.48,87.06 70.57,87.21 C 70.65,87.36 70.94,87.97 71.02,88.12 C 71.11,88.27 71.49,88.87 71.59,89.03 C 71.68,89.18 72.06,89.78 72.15,89.93 C 72.25,90.08 72.63,90.68 72.72,90.84 C 72.80,90.98 73.09,91.59 73.17,91.74 C 73.26,91.89 73.64,92.49 73.74,92.65 C 73.83,92.80 74.21,93.40 74.30,93.55 C 74.40,93.70 74.78,94.30 74.87,94.46 C 74.95,94.60 75.26,95.21 75.32,95.36 C 75.39,95.51 75.62,96.11 75.66,96.27 C 75.70,96.41 75.77,97.02 75.77,97.17 C 75.78,97.32 75.81,97.93 75.77,98.08 C 75.74,98.23 75.43,98.84 75.32,98.98 C 75.20,99.14 74.55,99.77 74.42,99.89 C 74.36,99.94 74.48,100.00 74.19,100.00 C 72.03,100.02 61.84,100.02 59.71,100.00 C 59.37,100.00 59.49,99.93 59.37,99.89 C 59.07,99.76 57.54,99.14 57.22,98.98 C 56.94,98.84 55.97,98.23 55.75,98.08 C 55.54,97.93 54.79,97.33 54.62,97.17 C 54.45,97.03 53.86,96.42 53.71,96.27 C 53.57,96.12 53.04,95.52 52.92,95.36 C 52.81,95.21 52.45,94.61 52.35,94.46 C 52.26,94.31 51.88,93.70 51.79,93.55 C 51.69,93.40 51.31,92.80 51.22,92.65 C 51.14,92.50 50.85,91.89 50.77,91.74 C 50.68,91.59 50.30,90.99 50.20,90.84 C 50.11,90.68 49.73,90.08 49.64,89.93 C 49.54,89.78 49.17,89.18 49.07,89.03 C 48.98,88.87 48.59,88.27 48.51,88.12 C 48.42,87.97 48.14,87.36 48.05,87.21 C 47.97,87.06 47.58,86.46 47.49,86.31 C 47.39,86.16 47.02,85.56 46.92,85.40 C 46.83,85.25 46.45,84.65 46.36,84.50 C 46.26,84.35 45.88,83.75 45.79,83.59 C 45.71,83.45 45.42,82.84 45.34,82.69 C 45.25,82.54 44.87,81.93 44.77,81.78 C 44.68,81.63 44.30,81.03 44.21,80.88 C 44.11,80.73 43.74,80.12 43.64,79.97 C 43.55,79.82 43.16,79.22 43.08,79.07 C 42.99,78.92 42.71,78.31 42.62,78.16 C 42.54,78.01 42.15,77.41 42.06,77.26 C 41.96,77.11 41.59,76.50 41.49,76.35 C 41.40,76.20 41.02,75.60 40.93,75.45 C 40.83,75.30 40.45,74.70 40.36,74.54 C 40.28,74.39 39.99,73.79 39.91,73.64 C 39.82,73.48 39.44,72.88 39.34,72.73 C 39.25,72.58 38.87,71.98 38.78,71.83 C 38.68,71.68 38.31,71.07 38.21,70.92 C 38.12,70.77 37.73,70.17 37.65,70.02 C 37.56,69.87 37.28,69.26 37.19,69.11 C 37.11,68.96 36.72,68.36 36.63,68.21 C 36.53,68.06 36.16,67.45 36.06,67.30 C 35.97,67.15 35.57,66.55 35.50,66.40 C 35.42,66.25 35.20,65.64 35.16,65.49 C 35.11,65.34 34.95,64.74 34.93,64.59 C 34.91,64.44 34.91,63.83 34.93,63.68 C 34.95,63.53 35.08,62.92 35.16,62.78 C 35.24,62.62 35.64,61.99 35.84,61.87 C 36.13,61.69 37.40,61.01 38.10,60.97 C 39.57,60.86 47.35,60.87 48.85,60.97 Z" fill="#ccc922"/>
<text x="100" y="58.5" font-family="Manrope, sans-serif" font-weight="700" font-size="22" letter-spacing="-0.3" fill="#1C1C1E">Kamal Rupareliya</text>
</svg>
